<svg xmlns="http://www.w3.org/2000/svg" viewBox="0 0 2794.54 2028.44"><defs><style>.cls-1{fill:#231f20;}</style></defs><g id="Layer_2" data-name="Layer 2"><g id="Layer_1-2" data-name="Layer 1"><path class="cls-1" d="M798.37,1516.41c0,282.79-229.24,512-512,512A509.61,509.61,0,0,1,0,1940.94l572.69-849C708.85,1183.9,798.37,1339.7,798.37,1516.41Z"/><path class="cls-1" d="M2794.54,2008v19.66l-117.62.07-957.21.53-155.71.09V2008a126,126,0,0,0,22.35,0c30-2.52,77.87-16.9,62.47-84.83L830.39,709.82,1309.17,0,2618.86,1941.69l0,0,0,.07a42,42,0,0,0,2.57,3.8.61.61,0,0,1,.07.1C2632.23,1960,2676.51,2007.55,2794.54,2008Z"/></g></g></svg>